<?xml version="1.0" encoding="UTF-8" standalone="no"?>
<!DOCTYPE svg PUBLIC "-//W3C//DTD SVG 1.1//EN" "http://www.w3.org/Graphics/SVG/1.1/DTD/svg11.dtd">
<svg width="100%" height="100%" viewBox="0 0 549 576" version="1.1" xmlns="http://www.w3.org/2000/svg" xmlns:xlink="http://www.w3.org/1999/xlink" xml:space="preserve" xmlns:serif="http://www.serif.com/" style="fill-rule:evenodd;clip-rule:evenodd;stroke-linejoin:round;stroke-miterlimit:2;">
    <g transform="matrix(1,0,0,1,-240.273,-250.797)">
        <g id="skeleton-flattened" serif:id="skeleton flattened" transform="matrix(1,0,0,1,43.5796,-13.5757)">
            <g id="bg" transform="matrix(1.09988,0,0,1.09988,-93.5319,-41.7081)">
                <path d="M762.27,394.488L762.27,689.181L515.355,800.472L532.178,792.883L513.07,801.502C513.07,801.502 263.869,690.051 263.869,690.051L263.869,394.488L511.999,278.285L762.27,394.488ZM762.27,565.641L762.27,583.74L762.27,565.641Z"/>
            </g>
            <g id="rightside" transform="matrix(1,0,0,1,-42.2857,12.2173)">
                <path d="M762.27,394.488L762.27,689.181L515.355,800.472L532.178,792.883L534.033,503.464L516.354,510.317L517.122,510.69L516.266,510.351L515.426,510.676L514.82,585.457L514.802,585.449L514.802,618.651L513.07,617.868L513.07,632.99L514.43,633.614L513.07,801.502C513.07,801.502 263.869,690.051 263.869,690.051L263.869,597.139L341.47,633.137L341.47,663.956L432.199,705.575L432.199,662.225L263.869,583.916L263.869,394.488L511.999,278.285L762.27,394.488ZM701.924,518.295L605.862,563.089L605.862,701.827L704.727,656.896L704.727,610.572L762.27,583.74L762.27,565.641L701.924,592.666L701.924,518.295ZM513.07,617.868L419.25,575.455L419.25,541L333.719,501.213L333.719,550.763L513.07,632.99L513.07,617.868Z" style="fill:rgb(167,209,41);"/>
            </g>
        </g>
    </g>
</svg>
